<?xml version="1.0" standalone="no"?><!DOCTYPE svg PUBLIC "-//W3C//DTD SVG 1.1//EN" "http://www.w3.org/Graphics/SVG/1.1/DTD/svg11.dtd"><svg t="1673333933015" class="icon" viewBox="0 0 1024 1024" version="1.1" xmlns="http://www.w3.org/2000/svg" p-id="2690" xmlns:xlink="http://www.w3.org/1999/xlink" width="48" height="48"><path d="M545.724551 247.313373v195.193613l99.12974-98.107784-99.12974-97.085829z m0 563.097805l99.12974-98.107785-99.12974-97.085828v195.193613z m-72.558882-280.015968v2.043912-2.043912zM512 0C308.630739 0 142.051896 166.578842 142.051896 369.948104V654.051896c0 203.369261 166.578842 369.948104 369.948104 369.948104 203.369261 0 369.948104-166.578842 369.948104-369.948104V368.926148C881.948104 165.556886 715.369261 0 512 0z m236.071856 712.303393L473.165669 984.143713V650.986028L344.399202 779.752495l-60.29541-60.295409 187.017964-187.017964L285.125749 344.399202l60.295409-60.29541 127.744511 128.766467V74.602794l274.906187 269.796408L561.053892 529.373253l187.017964 182.93014z" p-id="2691" fill="#ffffff"></path></svg>